<svg width="24" height="24" viewBox="0 0 24 24" fill="none" xmlns="http://www.w3.org/2000/svg">
<path d="M12 24C5.37258 24 0 18.6274 0 12C0 5.37258 5.37258 0 12 0C18.6274 0 24 5.37258 24 12C24 18.6274 18.6274 24 12 24Z" fill="white"/>
<path d="M8.00003 15.2L5.8667 13.0667M8.00003 15.2L10.1334 13.0667M8.00003 15.2V8.53335" stroke="#5CBEEF"/>
<path d="M16 8.79999L18.1333 10.9333M16 8.79999L13.8666 10.9333M16 8.79999L16 15.4667" stroke="#5CBEEF"/>
<path d="M23 12C23 18.0751 18.0751 23 12 23V25C19.1797 25 25 19.1797 25 12H23ZM12 1C18.0751 1 23 5.92487 23 12H25C25 4.8203 19.1797 -1 12 -1V1ZM1 12C1 5.92487 5.92487 1 12 1V-1C4.8203 -1 -1 4.8203 -1 12H1ZM-1 12C-1 19.1797 4.8203 25 12 25V23C5.92487 23 1 18.0751 1 12H-1Z" fill="#E5E5E5"/>
</svg>
