<?xml version="1.0" encoding="UTF-8"?>
<svg xmlns="http://www.w3.org/2000/svg" xmlns:xlink="http://www.w3.org/1999/xlink">
	<symbol id="dictionary" viewBox="0 0 100 100">
		<g stroke-opacity="0.7" stroke-width="10" stroke-linecap="round" stroke-linejoin="round">
			<path d="M47.5151515,83.0408487 C45.9435434,79.805772 42.626135,77.5757576 38.7878788,77.5757576 L0,77.5757576 L0,0 L38.7878788,0 C43.0829049,0 46.7257404,2.79235968 48,6.66069364 C49.2742596,2.79235968 52.9170951,0 57.2121212,0 L96,0 L96,77.5757576 L57.2121212,77.5757576 C53.373865,77.5757576 50.0564566,79.805772 48.4848485,83.0408482 L47.5151515,83.0408487 Z" />
			<path d="M48,6 L48,81.0299988" />
		</g>
	</symbol>
	<symbol viewBox="0 0 14 14" id="cross">
		<path d="M6.99999 5.58599L11.95 0.635986L13.364 2.04999L8.41399 6.99999L13.364 11.95L11.95 13.364L6.99999 8.41399L2.04999 13.364L0.635986 11.95L5.58599 6.99999L0.635986 2.04999L2.04999 0.635986L6.99999 5.58599Z" fill="#09121F" />
	</symbol>
	<symbol viewBox="0 0 15 16" id="box">
		<path d="M1.5 4L7.5 7M1.5 4V11C1.5 11 5.15685 13.219 7.5 14M1.5 4L7.5 1L13.5 4M7.5 7C7.5 7 7.5 11.2663 7.5 14M7.5 7L13.5 4M7.5 14C9.84315 13.219 13.5 11 13.5 11V4" />
	</symbol>
	<symbol viewBox="0 0 15 11" id="check">
		<path d="M1 5.5L5.5 10L14 1.5" />
	</symbol>
	<symbol viewBox="0 0 12 7" id="arrowDown">
		<path d="M10.8002 0.866679L6.0002 6.20001L1.2002 0.866679" />
	</symbol>
	<symbol viewBox="0 0 12 7" id="arrowUp">
		<path d="M1.1998 6.13332L5.9998 0.799988L10.7998 6.13332" />
	</symbol>
	<symbol viewBox="0 0 20 16" id="dictionary">
		<path d="M17.5312 0C17.1562 0 12.6875 0.21875 10 1.78125C7.28125 0.21875 2.8125 0 2.4375 0C1.09375 0 0 1.09375 0 2.40625V12.2188C0 13.4688 1 14.5312 2.28125 14.5938C3.4375 14.6562 6.3125 14.9062 8.15625 15.8125C8.40625 15.9375 8.6875 16 8.96875 16H11C11.2812 16 11.5625 15.9375 11.8125 15.8125C13.6562 14.9062 16.5312 14.6562 17.6875 14.5938C18.9688 14.5312 20 13.4688 20 12.2188V2.40625C20 1.09375 18.875 0 17.5312 0ZM9.25 13.7188C9.25 14.0625 8.90625 14.3125 8.5625 14.1875C6.5625 13.4062 3.75 13.1875 2.375 13.0938C1.875 13.0625 1.5 12.6875 1.5 12.2188V2.40625C1.5 1.90625 1.90625 1.5 2.4375 1.5C3.03125 1.53125 6.375 1.75 8.625 2.78125C9 2.9375 9.21875 3.3125 9.21875 3.6875L9.25 7V13.7188ZM18.5 12.2188C18.5 12.6875 18.0938 13.0625 17.5938 13.0938C16.2188 13.1875 13.4062 13.4062 11.4062 14.1875C11.0625 14.3125 10.75 14.0625 10.75 13.7188V7V3.6875C10.75 3.3125 10.9688 2.9375 11.3438 2.78125C13.5938 1.75 16.9375 1.53125 17.5312 1.5C18.0625 1.5 18.5 1.90625 18.5 2.40625V12.2188Z" />
	</symbol>
	<symbol viewBox="0 0 18 19" id="downloadDictionary">
		<path d="M0 17H18V19H0V17ZM10 11.172L16.071 5.1L17.485 6.514L9 15L0.515 6.515L1.929 5.1L8 11.17V0H10V11.172Z" />
	</symbol>
	<symbol viewBox="0 0 18 19" id="upload">
		<path d="M0 17H18V19H0V17ZM10 3.828V15H8V3.828L1.929 9.9L0.515 8.486L9 0L17.485 8.485L16.071 9.899L10 3.83V3.828Z" />
	</symbol>
	<symbol viewBox="0 0 512 512" id="download">
			<path d="M472,313v139c0,11.028-8.972,20-20,20H60c-11.028,0-20-8.972-20-20V313H0v139c0,33.084,26.916,60,60,60h392c33.084,0,60-26.916,60-60V313H472z" />
			<polygon points="352,235.716 276,311.716 276,0 236,0 236,311.716 160,235.716 131.716,264 256,388.284 380.284,264" />
	</symbol>
	<symbol viewBox="0 0 15 15" id="plus">
		<path d="M7.5 1.5L7.5 13.5M1.5 7.5L13.5 7.5" />
	</symbol>
</svg>
