<?xml version="1.0" encoding="UTF-8"?>
<svg xmlns="http://www.w3.org/2000/svg" xmlns:xlink="http://www.w3.org/1999/xlink">
	<symbol id="dictionary" viewBox="0 0 100 100">
		<g stroke-opacity="0.7" stroke-width="10" stroke-linecap="round" stroke-linejoin="round">
			<path d="M47.5151515,83.0408487 C45.9435434,79.805772 42.626135,77.5757576 38.7878788,77.5757576 L0,77.5757576 L0,0 L38.7878788,0 C43.0829049,0 46.7257404,2.79235968 48,6.66069364 C49.2742596,2.79235968 52.9170951,0 57.2121212,0 L96,0 L96,77.5757576 L57.2121212,77.5757576 C53.373865,77.5757576 50.0564566,79.805772 48.4848485,83.0408482 L47.5151515,83.0408487 Z" />
			<path d="M48,6 L48,81.0299988" />
		</g>
	</symbol>
	<symbol viewBox="0 0 15 15" id="cross">
		<path d="M1.5 1.5L13.5 13.5M1.5 13.5L13.5 1.5" />
	</symbol>
	<symbol viewBox="0 0 15 16" id="box">
		<path d="M1.5 4L7.5 7M1.5 4V11C1.5 11 5.15685 13.219 7.5 14M1.5 4L7.5 1L13.5 4M7.5 7C7.5 7 7.5 11.2663 7.5 14M7.5 7L13.5 4M7.5 14C9.84315 13.219 13.5 11 13.5 11V4" />
	</symbol>
	<symbol viewBox="0 0 15 11" id="check">
		<path d="M1 5.5L5.5 10L14 1.5" />
	</symbol>
	<symbol viewBox="0 0 512 512" id="download">
			<path d="M472,313v139c0,11.028-8.972,20-20,20H60c-11.028,0-20-8.972-20-20V313H0v139c0,33.084,26.916,60,60,60h392c33.084,0,60-26.916,60-60V313H472z" />
			<polygon points="352,235.716 276,311.716 276,0 236,0 236,311.716 160,235.716 131.716,264 256,388.284 380.284,264" />
	</symbol>
</svg>
